<svg t="1731402187901" class="icon" viewBox="0 0 1024 1024" version="1.1" xmlns="http://www.w3.org/2000/svg" p-id="66499" width="200" height="200"><path d="M0 0h1024v1024H0z" fill="#FFFFFF" opacity=".247" p-id="66500"></path><path d="M460.8 204.8c160.238933 0 290.133333 129.8944 290.133333 290.133333s-129.8944 290.133333-290.133333 290.133334-290.133333-129.8944-290.133333-290.133334 129.8944-290.133333 290.133333-290.133333zM102.4 563.2a17.066667 17.066667 0 1 1 0 34.133333 17.066667 17.066667 0 0 1 0-34.133333z m8.533333-256a25.6 25.6 0 1 1 0 51.2 25.6 25.6 0 0 1 0-51.2zM785.066667 153.6a17.066667 17.066667 0 0 1 17.066666 17.066667v8.533333h8.533334a17.066667 17.066667 0 0 1 0 34.133333H802.133333v8.533334a17.066667 17.066667 0 0 1-34.133333 0v-8.533334h-8.533333a17.066667 17.066667 0 0 1 0-34.133333h8.533333V170.666667a17.066667 17.066667 0 0 1 17.066667-17.066667zM392.533333 102.4a34.133333 34.133333 0 1 1 0 68.266667 34.133333 34.133333 0 0 1 0-68.266667z" fill="#F1F1F1" p-id="66501"></path><path d="M776.533333 904.533333a8.533333 8.533333 0 1 1 0 17.066667h-273.066666a8.533333 8.533333 0 1 1 0-17.066667h273.066666z m-238.933333-51.2a8.533333 8.533333 0 1 1 0 17.066667h-221.866667a8.533333 8.533333 0 1 1 0-17.066667h221.866667z m68.266667 0a8.533333 8.533333 0 1 1 0 17.066667h-34.133334a8.533333 8.533333 0 1 1 0-17.066667h34.133334z m324.266666 0a8.533333 8.533333 0 1 1 0 17.066667h-290.133333a8.533333 8.533333 0 1 1 0-17.066667h290.133333z m-85.333333-34.133333a8.533333 8.533333 0 1 1 0 17.066667h-563.2a8.533333 8.533333 0 1 1 0-17.066667h563.2z" fill="#C8C9CC" p-id="66502"></path><path d="M597.333333 170.666667c122.538667 0 221.866667 99.328 221.866667 221.866666 0 38.912-16.776533 88.951467-50.312533 150.135467l-6.929067 12.3904c-4.778667 8.362667-9.8304 16.896-15.189333 25.668267l-8.2944 13.277866c-5.666133 8.942933-11.605333 18.090667-17.885867 27.4432l-9.608533 14.165334c-3.2768 4.778667-6.638933 9.608533-10.069334 14.472533l-10.496 14.762667-10.9568 15.069866-11.4176 15.36-5.870933 7.7824-12.066133 15.803734c-2.048 2.6624-4.113067 5.341867-6.212267 8.021333l-12.731733 16.247467-13.192534 16.554666-6.775466 8.379734L597.333333 785.066667l-13.858133-16.9984-13.4144-16.6912-6.5536-8.2432-12.731733-16.247467-12.305067-15.957333-5.973333-7.850667-11.639467-15.530667-11.178667-15.189333a1819.818667 1819.818667 0 0 1-5.4272-7.509333l-10.496-14.762667-5.085866-7.2704-9.847467-14.318933a1291.9808 1291.9808 0 0 1-22.6304-34.491734l-8.277333-13.277866a953.617067 953.617067 0 0 1-15.2064-25.668267l-6.929067-12.3904C392.2432 481.4848 375.466667 431.445333 375.466667 392.533333c0-122.538667 99.328-221.866667 221.866666-221.866666z m0 17.066666c-113.1008 0-204.8 91.6992-204.8 204.8 0 38.792533 18.705067 90.965333 56.183467 156.16l7.253333 12.356267c7.458133 12.526933 15.598933 25.514667 24.3712 38.946133l9.0112 13.568c4.608 6.877867 9.386667 13.858133 14.336 20.9408l10.103467 14.336 10.5472 14.626134 10.990933 14.933333 5.666134 7.5776 11.639466 15.377067 12.100267 15.684266 6.212267 7.953067 12.7488 16.110933 13.636266 16.964267 13.858134-17.237333 12.970666-16.384 12.4928-16.0768 12.032-15.786667c1.979733-2.594133 3.925333-5.188267 5.853867-7.765333l11.3664-15.3088 10.9056-15.0016 5.290667-7.389867 10.205866-14.523733 9.762134-14.2336c1.604267-2.338133 3.1744-4.676267 4.7104-6.997334l9.096533-13.755733a1031.1168 1031.1168 0 0 0 31.778133-51.9168l6.8096-12.1856c30.72-56.1664 46.574933-102.0416 47.616-137.301333L802.133333 392.533333c0-113.1008-91.6992-204.8-204.8-204.8z" fill="#969799" p-id="66503"></path><path d="M597.333333 290.133333a102.4 102.4 0 1 1 0 204.8 102.4 102.4 0 0 1 0-204.8z m0 17.066667a85.333333 85.333333 0 1 0 0 170.666667 85.333333 85.333333 0 0 0 0-170.666667z" fill="#969799" p-id="66504"></path></svg>